<mxfile host="Electron" agent="Mozilla/5.0 (X11; Linux x86_64) AppleWebKit/537.36 (KHTML, like Gecko) draw.io/26.0.4 Chrome/128.0.6613.186 Electron/32.2.5 Safari/537.36" version="26.0.4">
  <diagram name="Page-1" id="jDS-JhoGd5YdV7mLaF9I">
    <mxGraphModel dx="2161" dy="1208" grid="1" gridSize="10" guides="1" tooltips="1" connect="1" arrows="1" fold="1" page="1" pageScale="1" pageWidth="850" pageHeight="1100" math="0" shadow="0">
      <root>
        <mxCell id="0" />
        <mxCell id="1" parent="0" />
        <mxCell id="gQkPntAoCRmPmgcHr82w-18" value="REST HTTPS&amp;nbsp;" style="edgeStyle=orthogonalEdgeStyle;rounded=0;orthogonalLoop=1;jettySize=auto;html=1;startArrow=classic;startFill=1;" edge="1" parent="1" source="gQkPntAoCRmPmgcHr82w-2" target="gQkPntAoCRmPmgcHr82w-3">
          <mxGeometry relative="1" as="geometry" />
        </mxCell>
        <mxCell id="gQkPntAoCRmPmgcHr82w-33" style="edgeStyle=orthogonalEdgeStyle;rounded=0;orthogonalLoop=1;jettySize=auto;html=1;dashed=1;" edge="1" parent="1" source="gQkPntAoCRmPmgcHr82w-2" target="gQkPntAoCRmPmgcHr82w-12">
          <mxGeometry relative="1" as="geometry">
            <Array as="points">
              <mxPoint x="160" y="460" />
              <mxPoint x="160" y="570" />
              <mxPoint x="359" y="570" />
            </Array>
          </mxGeometry>
        </mxCell>
        <mxCell id="gQkPntAoCRmPmgcHr82w-2" value="Client" style="sketch=0;outlineConnect=0;fontColor=#232F3E;gradientColor=none;fillColor=#232F3D;strokeColor=none;dashed=0;verticalLabelPosition=middle;verticalAlign=middle;align=right;html=1;fontSize=16;fontStyle=0;aspect=fixed;pointerEvents=1;shape=mxgraph.aws4.client;labelPosition=left;spacingRight=5;" vertex="1" parent="1">
          <mxGeometry x="-30" y="396" width="78" height="76" as="geometry" />
        </mxCell>
        <mxCell id="gQkPntAoCRmPmgcHr82w-19" value="&amp;nbsp;Invoke&amp;nbsp;" style="edgeStyle=orthogonalEdgeStyle;rounded=0;orthogonalLoop=1;jettySize=auto;html=1;startArrow=classic;startFill=1;" edge="1" parent="1" source="gQkPntAoCRmPmgcHr82w-3" target="gQkPntAoCRmPmgcHr82w-14">
          <mxGeometry relative="1" as="geometry" />
        </mxCell>
        <mxCell id="gQkPntAoCRmPmgcHr82w-3" value="Amazon API Gateway" style="sketch=0;points=[[0,0,0],[0.25,0,0],[0.5,0,0],[0.75,0,0],[1,0,0],[0,1,0],[0.25,1,0],[0.5,1,0],[0.75,1,0],[1,1,0],[0,0.25,0],[0,0.5,0],[0,0.75,0],[1,0.25,0],[1,0.5,0],[1,0.75,0]];outlineConnect=0;fontColor=#232F3E;fillColor=#E7157B;strokeColor=#ffffff;dashed=0;verticalLabelPosition=bottom;verticalAlign=top;align=center;html=1;fontSize=12;fontStyle=0;aspect=fixed;shape=mxgraph.aws4.resourceIcon;resIcon=mxgraph.aws4.api_gateway;" vertex="1" parent="1">
          <mxGeometry x="210" y="395" width="78" height="78" as="geometry" />
        </mxCell>
        <mxCell id="gQkPntAoCRmPmgcHr82w-24" value="&amp;nbsp;OAC: Origin Access Control&amp;nbsp;" style="edgeStyle=orthogonalEdgeStyle;rounded=0;orthogonalLoop=1;jettySize=auto;html=1;startArrow=classic;startFill=1;" edge="1" parent="1" source="gQkPntAoCRmPmgcHr82w-4" target="gQkPntAoCRmPmgcHr82w-17">
          <mxGeometry relative="1" as="geometry" />
        </mxCell>
        <mxCell id="gQkPntAoCRmPmgcHr82w-4" value="Amazon CloudFront&lt;div&gt;Global distribution&lt;/div&gt;" style="sketch=0;points=[[0,0,0],[0.25,0,0],[0.5,0,0],[0.75,0,0],[1,0,0],[0,1,0],[0.25,1,0],[0.5,1,0],[0.75,1,0],[1,1,0],[0,0.25,0],[0,0.5,0],[0,0.75,0],[1,0.25,0],[1,0.5,0],[1,0.75,0]];outlineConnect=0;fontColor=#232F3E;fillColor=#8C4FFF;strokeColor=#ffffff;dashed=0;verticalLabelPosition=bottom;verticalAlign=top;align=center;html=1;fontSize=12;fontStyle=0;aspect=fixed;shape=mxgraph.aws4.resourceIcon;resIcon=mxgraph.aws4.cloudfront;" vertex="1" parent="1">
          <mxGeometry x="320" y="180" width="78" height="78" as="geometry" />
        </mxCell>
        <mxCell id="gQkPntAoCRmPmgcHr82w-28" style="edgeStyle=orthogonalEdgeStyle;rounded=0;orthogonalLoop=1;jettySize=auto;html=1;dashed=1;" edge="1" parent="1" source="gQkPntAoCRmPmgcHr82w-5" target="gQkPntAoCRmPmgcHr82w-8">
          <mxGeometry relative="1" as="geometry" />
        </mxCell>
        <mxCell id="gQkPntAoCRmPmgcHr82w-5" value="Amazon S3" style="sketch=0;points=[[0,0,0],[0.25,0,0],[0.5,0,0],[0.75,0,0],[1,0,0],[0,1,0],[0.25,1,0],[0.5,1,0],[0.75,1,0],[1,1,0],[0,0.25,0],[0,0.5,0],[0,0.75,0],[1,0.25,0],[1,0.5,0],[1,0.75,0]];outlineConnect=0;fontColor=#232F3E;fillColor=#7AA116;strokeColor=#ffffff;dashed=0;verticalLabelPosition=bottom;verticalAlign=top;align=center;html=1;fontSize=12;fontStyle=0;aspect=fixed;shape=mxgraph.aws4.resourceIcon;resIcon=mxgraph.aws4.s3;" vertex="1" parent="1">
          <mxGeometry x="670" y="610" width="78" height="78" as="geometry" />
        </mxCell>
        <mxCell id="gQkPntAoCRmPmgcHr82w-21" style="edgeStyle=orthogonalEdgeStyle;rounded=0;orthogonalLoop=1;jettySize=auto;html=1;" edge="1" parent="1" source="gQkPntAoCRmPmgcHr82w-6" target="gQkPntAoCRmPmgcHr82w-7">
          <mxGeometry relative="1" as="geometry" />
        </mxCell>
        <mxCell id="gQkPntAoCRmPmgcHr82w-6" value="DAX (Caching Layer)" style="sketch=0;outlineConnect=0;fontColor=#232F3E;gradientColor=none;fillColor=#C925D1;strokeColor=none;dashed=0;verticalLabelPosition=bottom;verticalAlign=top;align=center;html=1;fontSize=12;fontStyle=0;aspect=fixed;pointerEvents=1;shape=mxgraph.aws4.dynamodb_dax;" vertex="1" parent="1">
          <mxGeometry x="670" y="398" width="78" height="72" as="geometry" />
        </mxCell>
        <mxCell id="gQkPntAoCRmPmgcHr82w-7" value="DynamoDB" style="sketch=0;points=[[0,0,0],[0.25,0,0],[0.5,0,0],[0.75,0,0],[1,0,0],[0,1,0],[0.25,1,0],[0.5,1,0],[0.75,1,0],[1,1,0],[0,0.25,0],[0,0.5,0],[0,0.75,0],[1,0.25,0],[1,0.5,0],[1,0.75,0]];outlineConnect=0;fontColor=#232F3E;fillColor=#C925D1;strokeColor=#ffffff;dashed=0;verticalLabelPosition=bottom;verticalAlign=top;align=center;html=1;fontSize=12;fontStyle=0;aspect=fixed;shape=mxgraph.aws4.resourceIcon;resIcon=mxgraph.aws4.dynamodb;" vertex="1" parent="1">
          <mxGeometry x="900" y="395" width="78" height="78" as="geometry" />
        </mxCell>
        <mxCell id="gQkPntAoCRmPmgcHr82w-8" value="SQS" style="sketch=0;points=[[0,0,0],[0.25,0,0],[0.5,0,0],[0.75,0,0],[1,0,0],[0,1,0],[0.25,1,0],[0.5,1,0],[0.75,1,0],[1,1,0],[0,0.25,0],[0,0.5,0],[0,0.75,0],[1,0.25,0],[1,0.5,0],[1,0.75,0]];outlineConnect=0;fontColor=#232F3E;fillColor=#E7157B;strokeColor=#ffffff;dashed=0;verticalLabelPosition=bottom;verticalAlign=top;align=center;html=1;fontSize=12;fontStyle=0;aspect=fixed;shape=mxgraph.aws4.resourceIcon;resIcon=mxgraph.aws4.sqs;" vertex="1" parent="1">
          <mxGeometry x="900" y="610" width="78" height="78" as="geometry" />
        </mxCell>
        <mxCell id="gQkPntAoCRmPmgcHr82w-9" value="SNS" style="sketch=0;points=[[0,0,0],[0.25,0,0],[0.5,0,0],[0.75,0,0],[1,0,0],[0,1,0],[0.25,1,0],[0.5,1,0],[0.75,1,0],[1,1,0],[0,0.25,0],[0,0.5,0],[0,0.75,0],[1,0.25,0],[1,0.5,0],[1,0.75,0]];outlineConnect=0;fontColor=#232F3E;fillColor=#E7157B;strokeColor=#ffffff;dashed=0;verticalLabelPosition=bottom;verticalAlign=top;align=center;html=1;fontSize=12;fontStyle=0;aspect=fixed;shape=mxgraph.aws4.resourceIcon;resIcon=mxgraph.aws4.sns;" vertex="1" parent="1">
          <mxGeometry x="900" y="740" width="78" height="78" as="geometry" />
        </mxCell>
        <mxCell id="gQkPntAoCRmPmgcHr82w-25" value="&amp;nbsp;OAC&amp;nbsp;" style="edgeStyle=orthogonalEdgeStyle;rounded=0;orthogonalLoop=1;jettySize=auto;html=1;startArrow=classic;startFill=1;" edge="1" parent="1" source="gQkPntAoCRmPmgcHr82w-10" target="gQkPntAoCRmPmgcHr82w-12">
          <mxGeometry relative="1" as="geometry" />
        </mxCell>
        <mxCell id="gQkPntAoCRmPmgcHr82w-10" value="Amazon CloudFront&lt;div&gt;Global distribution&lt;/div&gt;" style="sketch=0;points=[[0,0,0],[0.25,0,0],[0.5,0,0],[0.75,0,0],[1,0,0],[0,1,0],[0.25,1,0],[0.5,1,0],[0.75,1,0],[1,1,0],[0,0.25,0],[0,0.5,0],[0,0.75,0],[1,0.25,0],[1,0.5,0],[1,0.75,0]];outlineConnect=0;fontColor=#232F3E;fillColor=#8C4FFF;strokeColor=#ffffff;dashed=0;verticalLabelPosition=bottom;verticalAlign=top;align=center;html=1;fontSize=12;fontStyle=0;aspect=fixed;shape=mxgraph.aws4.resourceIcon;resIcon=mxgraph.aws4.cloudfront;" vertex="1" parent="1">
          <mxGeometry x="90" y="610" width="78" height="78" as="geometry" />
        </mxCell>
        <mxCell id="gQkPntAoCRmPmgcHr82w-27" value="&amp;nbsp;Thumbnail&amp;nbsp;" style="edgeStyle=orthogonalEdgeStyle;rounded=0;orthogonalLoop=1;jettySize=auto;html=1;" edge="1" parent="1" source="gQkPntAoCRmPmgcHr82w-11" target="gQkPntAoCRmPmgcHr82w-5">
          <mxGeometry relative="1" as="geometry" />
        </mxCell>
        <mxCell id="gQkPntAoCRmPmgcHr82w-11" value="AWS Lambda" style="sketch=0;points=[[0,0,0],[0.25,0,0],[0.5,0,0],[0.75,0,0],[1,0,0],[0,1,0],[0.25,1,0],[0.5,1,0],[0.75,1,0],[1,1,0],[0,0.25,0],[0,0.5,0],[0,0.75,0],[1,0.25,0],[1,0.5,0],[1,0.75,0]];outlineConnect=0;fontColor=#232F3E;fillColor=#ED7100;strokeColor=#ffffff;dashed=0;verticalLabelPosition=bottom;verticalAlign=top;align=center;html=1;fontSize=12;fontStyle=0;aspect=fixed;shape=mxgraph.aws4.resourceIcon;resIcon=mxgraph.aws4.lambda;" vertex="1" parent="1">
          <mxGeometry x="500" y="610" width="78" height="78" as="geometry" />
        </mxCell>
        <mxCell id="gQkPntAoCRmPmgcHr82w-26" value="&amp;nbsp;Trigger&amp;nbsp;" style="edgeStyle=orthogonalEdgeStyle;rounded=0;orthogonalLoop=1;jettySize=auto;html=1;" edge="1" parent="1" source="gQkPntAoCRmPmgcHr82w-12" target="gQkPntAoCRmPmgcHr82w-11">
          <mxGeometry relative="1" as="geometry" />
        </mxCell>
        <mxCell id="gQkPntAoCRmPmgcHr82w-12" value="Amazon S3" style="sketch=0;points=[[0,0,0],[0.25,0,0],[0.5,0,0],[0.75,0,0],[1,0,0],[0,1,0],[0.25,1,0],[0.5,1,0],[0.75,1,0],[1,1,0],[0,0.25,0],[0,0.5,0],[0,0.75,0],[1,0.25,0],[1,0.5,0],[1,0.75,0]];outlineConnect=0;fontColor=#232F3E;fillColor=#7AA116;strokeColor=#ffffff;dashed=0;verticalLabelPosition=bottom;verticalAlign=top;align=center;html=1;fontSize=12;fontStyle=0;aspect=fixed;shape=mxgraph.aws4.resourceIcon;resIcon=mxgraph.aws4.s3;" vertex="1" parent="1">
          <mxGeometry x="320" y="610" width="78" height="78" as="geometry" />
        </mxCell>
        <mxCell id="gQkPntAoCRmPmgcHr82w-20" value="Query / Read&amp;nbsp;" style="edgeStyle=orthogonalEdgeStyle;rounded=0;orthogonalLoop=1;jettySize=auto;html=1;" edge="1" parent="1" source="gQkPntAoCRmPmgcHr82w-6" target="gQkPntAoCRmPmgcHr82w-14">
          <mxGeometry relative="1" as="geometry" />
        </mxCell>
        <mxCell id="gQkPntAoCRmPmgcHr82w-14" value="AWS Lambda" style="sketch=0;points=[[0,0,0],[0.25,0,0],[0.5,0,0],[0.75,0,0],[1,0,0],[0,1,0],[0.25,1,0],[0.5,1,0],[0.75,1,0],[1,1,0],[0,0.25,0],[0,0.5,0],[0,0.75,0],[1,0.25,0],[1,0.5,0],[1,0.75,0]];outlineConnect=0;fontColor=#232F3E;fillColor=#ED7100;strokeColor=#ffffff;dashed=0;verticalLabelPosition=bottom;verticalAlign=top;align=center;html=1;fontSize=12;fontStyle=0;aspect=fixed;shape=mxgraph.aws4.resourceIcon;resIcon=mxgraph.aws4.lambda;" vertex="1" parent="1">
          <mxGeometry x="440" y="395" width="78" height="78" as="geometry" />
        </mxCell>
        <mxCell id="gQkPntAoCRmPmgcHr82w-16" value="Only authorize from&lt;div&gt;CloudFront Distribution&lt;/div&gt;" style="sketch=0;outlineConnect=0;fontColor=#232F3E;gradientColor=none;fillColor=#DD344C;strokeColor=none;dashed=0;verticalLabelPosition=middle;verticalAlign=middle;align=left;html=1;fontSize=12;fontStyle=0;aspect=fixed;pointerEvents=1;shape=mxgraph.aws4.permissions;labelPosition=right;spacingLeft=5;" vertex="1" parent="1">
          <mxGeometry x="730" y="140" width="62" height="78" as="geometry" />
        </mxCell>
        <mxCell id="gQkPntAoCRmPmgcHr82w-17" value="Amazon S3" style="sketch=0;points=[[0,0,0],[0.25,0,0],[0.5,0,0],[0.75,0,0],[1,0,0],[0,1,0],[0.25,1,0],[0.5,1,0],[0.75,1,0],[1,1,0],[0,0.25,0],[0,0.5,0],[0,0.75,0],[1,0.25,0],[1,0.5,0],[1,0.75,0]];outlineConnect=0;fontColor=#232F3E;fillColor=#7AA116;strokeColor=#ffffff;dashed=0;verticalLabelPosition=bottom;verticalAlign=top;align=center;html=1;fontSize=12;fontStyle=0;aspect=fixed;shape=mxgraph.aws4.resourceIcon;resIcon=mxgraph.aws4.s3;" vertex="1" parent="1">
          <mxGeometry x="670" y="180" width="78" height="78" as="geometry" />
        </mxCell>
        <mxCell id="gQkPntAoCRmPmgcHr82w-23" value="&amp;nbsp;Interaction with edge locations&amp;nbsp;" style="edgeStyle=orthogonalEdgeStyle;rounded=0;orthogonalLoop=1;jettySize=auto;html=1;entryX=0;entryY=0.5;entryDx=0;entryDy=0;entryPerimeter=0;startArrow=classic;startFill=1;" edge="1" parent="1" source="gQkPntAoCRmPmgcHr82w-2" target="gQkPntAoCRmPmgcHr82w-4">
          <mxGeometry x="0.1802" relative="1" as="geometry">
            <Array as="points">
              <mxPoint x="9" y="219" />
            </Array>
            <mxPoint as="offset" />
          </mxGeometry>
        </mxCell>
        <mxCell id="gQkPntAoCRmPmgcHr82w-30" value="Optional" style="text;html=1;align=center;verticalAlign=middle;resizable=0;points=[];autosize=1;strokeColor=none;fillColor=none;fontStyle=1;fontSize=14;" vertex="1" parent="1">
          <mxGeometry x="787" y="610" width="80" height="30" as="geometry" />
        </mxCell>
        <mxCell id="gQkPntAoCRmPmgcHr82w-31" style="edgeStyle=orthogonalEdgeStyle;rounded=0;orthogonalLoop=1;jettySize=auto;html=1;exitX=1;exitY=0.75;exitDx=0;exitDy=0;exitPerimeter=0;entryX=0;entryY=0.5;entryDx=0;entryDy=0;entryPerimeter=0;dashed=1;" edge="1" parent="1" source="gQkPntAoCRmPmgcHr82w-5" target="gQkPntAoCRmPmgcHr82w-9">
          <mxGeometry relative="1" as="geometry" />
        </mxCell>
        <mxCell id="gQkPntAoCRmPmgcHr82w-32" value="Upload photos&lt;div&gt;Transfer acceleration&lt;/div&gt;" style="edgeStyle=orthogonalEdgeStyle;rounded=0;orthogonalLoop=1;jettySize=auto;html=1;entryX=0;entryY=0.5;entryDx=0;entryDy=0;entryPerimeter=0;startArrow=classic;startFill=1;" edge="1" parent="1" source="gQkPntAoCRmPmgcHr82w-2" target="gQkPntAoCRmPmgcHr82w-10">
          <mxGeometry x="-0.318" relative="1" as="geometry">
            <Array as="points">
              <mxPoint x="9" y="649" />
            </Array>
            <mxPoint as="offset" />
          </mxGeometry>
        </mxCell>
      </root>
    </mxGraphModel>
  </diagram>
</mxfile>
